<svg height="512pt" viewBox="0 0 512 512" width="512pt" xmlns="http://www.w3.org/2000/svg"><path d="m184.175781 412.347656h143.058594v72.558594h-143.058594zm0 0" fill="#5a5a5a"/><path d="m485.15625 426.003906h-458.902344c-14.5 0-26.253906-11.753906-26.253906-26.253906v-373.496094c0-14.5 11.753906-26.253906 26.253906-26.253906h458.898438c14.5 0 26.257812 11.753906 26.257812 26.253906v373.496094c0 14.5-11.753906 26.253906-26.253906 26.253906zm0 0" fill="#ffd86e"/><path d="m511.414062 26.257812v373.492188c0 14.503906-11.753906 26.253906-26.257812 26.253906h-32.066406c14.5 0 26.253906-11.753906 26.253906-26.253906v-373.492188c0-14.5-11.753906-26.25390575-26.253906-26.25390575h32.066406c14.503906 0 26.257812 11.75390575 26.257812 26.25390575zm0 0" fill="#ffb509"/><path d="m511.410156 362.753906h-511.410156v36.996094c0 14.5 11.753906 26.253906 26.253906 26.253906h458.898438c14.5 0 26.257812-11.753906 26.257812-26.253906zm0 0" fill="#838383"/><path d="m511.414062 362.75v37c0 14.503906-11.753906 26.253906-26.257812 26.253906h-32.066406c14.5 0 26.253906-11.753906 26.253906-26.253906v-37zm0 0" fill="#5a5a5a"/><path d="m511.996094 89.5625h-511.425782v-63.308594c0-14.5 11.753907-26.253906 26.25-26.253906h458.921876c14.5 0 26.25 11.753906 26.25 26.253906v63.308594zm0 0" fill="#acacac"/><path d="m512 26.246094v63.320312h-32.65625v-63.320312c0-14.488282-11.753906-26.24218775-26.253906-26.24218775h32.65625c14.5 0 26.253906 11.75390575 26.253906 26.24218775zm0 0" fill="#9c9c9c"/><path d="m64.144531 44.5625c0 8.25-6.6875 14.933594-14.933593 14.933594-8.25 0-14.9375-6.683594-14.9375-14.933594 0-8.246094 6.6875-14.933594 14.9375-14.933594 8.246093 0 14.933593 6.6875 14.933593 14.933594zm0 0" fill="#ff5770"/><path d="m121.816406 44.5625c0 8.25-6.6875 14.933594-14.933594 14.933594-8.246093 0-14.933593-6.683594-14.933593-14.933594 0-8.246094 6.6875-14.933594 14.933593-14.933594 8.246094 0 14.933594 6.6875 14.933594 14.933594zm0 0" fill="#ffd86e"/><path d="m179.492188 44.5625c0 8.25-6.6875 14.933594-14.933594 14.933594-8.25 0-14.9375-6.683594-14.9375-14.933594 0-8.246094 6.6875-14.933594 14.9375-14.933594 8.246094 0 14.933594 6.6875 14.933594 14.933594zm0 0" fill="#80e0dc"/><path d="m64.136719 44.566406c0 8.246094-6.679688 14.925782-14.921875 14.925782-3.996094 0-7.628906-1.566407-10.304688-4.128907 8.078125-.175781 14.585938-6.78125 14.585938-14.914062 0-4.257813-1.78125-8.089844-4.632813-10.804688.113281-.011719.238281-.011719.351563-.011719 8.242187 0 14.921875 6.679688 14.921875 14.933594zm0 0" fill="#ff435f"/><path d="m121.8125 44.566406c0 8.246094-6.679688 14.925782-14.933594 14.925782-3.992187 0-7.613281-1.566407-10.300781-4.128907 8.089844-.175781 14.59375-6.78125 14.59375-14.914062 0-4.257813-1.78125-8.089844-4.632813-10.804688.113282-.011719.226563-.011719.34375-.011719 8.253907 0 14.929688 6.679688 14.929688 14.933594zm0 0" fill="#ffb509"/><path d="m179.492188 44.566406c0 8.246094-6.691407 14.925782-14.933594 14.925782-3.992188 0-7.617188-1.566407-10.300782-4.128907 8.089844-.175781 14.582032-6.78125 14.582032-14.914062 0-4.257813-1.78125-8.089844-4.628906-10.804688.109374-.011719.234374-.011719.347656-.011719 8.242187 0 14.933594 6.679688 14.933594 14.933594zm0 0" fill="#00a8b0"/><path d="m373.59375 511.425781h-235.777344c-2.839844 0-5.144531-2.304687-5.144531-5.144531v-16.679688c0-11.308593 9.167969-20.472656 20.476563-20.472656h205.113281c11.308593 0 20.476562 9.164063 20.476562 20.472656v16.679688c0 2.839844-2.304687 5.144531-5.144531 5.144531zm0 0" fill="#838383"/><path d="m378.738281 489.601562v16.679688c0 2.84375-2.304687 5.148438-5.148437 5.148438h-18.164063v-21.832032c0-11.300781-9.171875-20.46875-20.472656-20.46875h23.3125c11.304687 0 20.472656 9.164063 20.472656 20.472656zm0 0" fill="#5a5a5a"/><path d="m.570312 89.5625h254.105469v272.632812h-254.105469zm0 0" fill="#c9f0ff"/><path d="m230.601562 89.5625h24.074219v272.632812h-24.074219zm0 0" fill="#9ae7fd"/><g fill="#5a5a5a"><path d="m79.710938 127.828125h-39.113282c-4.140625 0-7.5-3.359375-7.5-7.5s3.359375-7.5 7.5-7.5h39.113282c4.140624 0 7.5 3.359375 7.5 7.5s-3.359376 7.5-7.5 7.5zm0 0"/><path d="m124.996094 127.828125h-18.527344c-4.140625 0-7.5-3.359375-7.5-7.5s3.359375-7.5 7.5-7.5h18.527344c4.140625 0 7.5 3.359375 7.5 7.5s-3.359375 7.5-7.5 7.5zm0 0"/><path d="m99.265625 155.078125h-25.730469c-4.144531 0-7.5-3.359375-7.5-7.5 0-4.144531 3.355469-7.5 7.5-7.5h25.730469c4.140625 0 7.5 3.355469 7.5 7.5 0 4.140625-3.359375 7.5-7.5 7.5zm0 0"/><path d="m111.613281 183.300781h-13.378906c-4.140625 0-7.5-3.359375-7.5-7.5 0-4.144531 3.359375-7.5 7.5-7.5h13.378906c4.144531 0 7.5 3.355469 7.5 7.5 0 4.140625-3.355469 7.5-7.5 7.5zm0 0"/><path d="m220.710938 183.300781h-25.730469c-4.140625 0-7.5-3.359375-7.5-7.5 0-4.144531 3.359375-7.5 7.5-7.5h25.730469c4.144531 0 7.5 3.355469 7.5 7.5 0 4.140625-3.355469 7.5-7.5 7.5zm0 0"/><path d="m184.6875 155.078125h-61.75c-4.140625 0-7.5-3.359375-7.5-7.5 0-4.144531 3.359375-7.5 7.5-7.5h61.75c4.144531 0 7.5 3.355469 7.5 7.5 0 4.140625-3.355469 7.5-7.5 7.5zm0 0"/><path d="m171.308594 183.300781h-37.050782c-4.140624 0-7.5-3.359375-7.5-7.5 0-4.144531 3.359376-7.5 7.5-7.5h37.050782c4.144531 0 7.5 3.355469 7.5 7.5 0 4.140625-3.355469 7.5-7.5 7.5zm0 0"/><path d="m79.710938 283.347656h-39.113282c-4.140625 0-7.5-3.359375-7.5-7.5 0-4.144531 3.359375-7.5 7.5-7.5h39.113282c4.140624 0 7.5 3.355469 7.5 7.5 0 4.140625-3.359376 7.5-7.5 7.5zm0 0"/><path d="m124.996094 283.347656h-18.527344c-4.140625 0-7.5-3.359375-7.5-7.5 0-4.144531 3.359375-7.5 7.5-7.5h18.527344c4.140625 0 7.5 3.355469 7.5 7.5 0 4.140625-3.359375 7.5-7.5 7.5zm0 0"/><path d="m99.265625 310.59375h-25.730469c-4.144531 0-7.5-3.355469-7.5-7.5 0-4.140625 3.355469-7.5 7.5-7.5h25.730469c4.140625 0 7.5 3.359375 7.5 7.5 0 4.144531-3.359375 7.5-7.5 7.5zm0 0"/><path d="m111.613281 338.816406h-13.378906c-4.140625 0-7.5-3.355468-7.5-7.5 0-4.140625 3.359375-7.5 7.5-7.5h13.378906c4.144531 0 7.5 3.359375 7.5 7.5 0 4.144532-3.355469 7.5-7.5 7.5zm0 0"/><path d="m220.710938 338.816406h-25.730469c-4.140625 0-7.5-3.355468-7.5-7.5 0-4.140625 3.359375-7.5 7.5-7.5h25.730469c4.144531 0 7.5 3.359375 7.5 7.5 0 4.144532-3.355469 7.5-7.5 7.5zm0 0"/><path d="m184.6875 310.59375h-61.75c-4.140625 0-7.5-3.355469-7.5-7.5 0-4.140625 3.359375-7.5 7.5-7.5h61.75c4.144531 0 7.5 3.359375 7.5 7.5 0 4.144531-3.355469 7.5-7.5 7.5zm0 0"/><path d="m171.308594 338.816406h-37.050782c-4.140624 0-7.5-3.355468-7.5-7.5 0-4.140625 3.359376-7.5 7.5-7.5h37.050782c4.144531 0 7.5 3.359375 7.5 7.5 0 4.144532-3.355469 7.5-7.5 7.5zm0 0"/><path d="m62.210938 218.667969h-21.613282c-4.140625 0-7.5-3.355469-7.5-7.5 0-4.140625 3.359375-7.5 7.5-7.5h21.613282c4.144531 0 7.5 3.359375 7.5 7.5 0 4.144531-3.355469 7.5-7.5 7.5zm0 0"/><path d="m163.074219 218.667969h-79.25c-4.140625 0-7.5-3.355469-7.5-7.5 0-4.140625 3.359375-7.5 7.5-7.5h79.25c4.144531 0 7.5 3.359375 7.5 7.5 0 4.144531-3.355469 7.5-7.5 7.5zm0 0"/><path d="m148.667969 245.917969h-75.132813c-4.144531 0-7.5-3.359375-7.5-7.5s3.355469-7.5 7.5-7.5h75.128906c4.144532 0 7.5 3.359375 7.5 7.5s-3.355468 7.5-7.496093 7.5zm0 0"/><path d="m184.6875 245.917969h-14.40625c-4.144531 0-7.5-3.359375-7.5-7.5s3.355469-7.5 7.5-7.5h14.40625c4.144531 0 7.5 3.359375 7.5 7.5s-3.355469 7.5-7.5 7.5zm0 0"/><path d="m345.636719 305.882812h-49.402344c-4.140625 0-7.5-3.359374-7.5-7.5 0-4.140624 3.359375-7.5 7.5-7.5h49.402344c4.144531 0 7.5 3.359376 7.5 7.5 0 4.140626-3.355469 7.5-7.5 7.5zm0 0"/><path d="m471.203125 305.882812h-97.777344c-4.140625 0-7.5-3.359374-7.5-7.5 0-4.140624 3.359375-7.5 7.5-7.5h97.777344c4.140625 0 7.5 3.359376 7.5 7.5 0 4.140626-3.359375 7.5-7.5 7.5zm0 0"/><path d="m345.636719 335.730469h-49.402344c-4.140625 0-7.5-3.359375-7.5-7.5s3.359375-7.5 7.5-7.5h49.402344c4.144531 0 7.5 3.359375 7.5 7.5s-3.355469 7.5-7.5 7.5zm0 0"/><path d="m471.203125 335.730469h-97.777344c-4.140625 0-7.5-3.359375-7.5-7.5s3.359375-7.5 7.5-7.5h97.777344c4.140625 0 7.5 3.359375 7.5 7.5s-3.359375 7.5-7.5 7.5zm0 0"/></g><path d="m459.210938 267.621094h-150.988282c-6.75 0-12.226562-5.472656-12.226562-12.226563v-122.839843c0-6.75 5.476562-12.226563 12.226562-12.226563h150.988282c6.753906 0 12.226562 5.476563 12.226562 12.226563v122.839843c0 6.75-5.472656 12.226563-12.226562 12.226563zm0 0" fill="#c9f0ff"/><path d="m471.441406 132.554688v122.839843c0 6.75-5.480468 12.226563-12.226562 12.226563h-19.980469c6.753906 0 12.234375-5.480469 12.234375-12.226563v-122.839843c0-6.757813-5.480469-12.226563-12.234375-12.226563h19.980469c6.75 0 12.226562 5.46875 12.226562 12.226563zm0 0" fill="#9ae7fd"/><path d="m421.683594 188.222656-25.003906 24.992188-32.917969-37.097656c-1.71875-1.9375-4.71875-2.027344-6.550781-.195313l-61.214844 61.183594v18.285156c0 6.753906 5.476562 12.226563 12.226562 12.226563h150.988282c6.753906 0 12.226562-5.472657 12.226562-12.226563v-18.285156l-43.199219-48.683594c-1.71875-1.941406-4.71875-2.03125-6.554687-.199219zm0 0" fill="#80e0dc"/><path d="m471.441406 237.105469v18.289062c0 6.75-5.480468 12.226563-12.226562 12.226563h-19.980469c6.753906 0 12.234375-5.476563 12.234375-12.226563v-40.800781zm0 0" fill="#00a8b0"/></svg>