<?xml version="1.0" encoding="iso-8859-1"?>
<!-- Generator: Adobe Illustrator 16.0.0, SVG Export Plug-In . SVG Version: 6.00 Build 0)  -->
<!DOCTYPE svg PUBLIC "-//W3C//DTD SVG 1.1//EN" "http://www.w3.org/Graphics/SVG/1.1/DTD/svg11.dtd">
<svg version="1.1" id="Capa_1" xmlns="http://www.w3.org/2000/svg" xmlns:xlink="http://www.w3.org/1999/xlink" x="0px" y="0px"
	 width="567.803px" height="567.803px" viewBox="0 0 567.803 567.803" style="enable-background:new 0 0 567.803 567.803;"
	 xml:space="preserve">
<g>
	<g>
		<path d="M429.216,140.669c-3.55-18.124-3.24-37.071-6.238-55.337c-4.076-24.831-12.575-50.074-30.698-67.528
			c-22.48-21.652-56.039-23.705-81.065-5.336c-2.306,1.689-2.962,5.7-4.219,8.715c-0.396,0.951-0.723,1.934-1.053,2.991
			c-0.522,1.673-1.392,3.407-1.95,3.859c-0.339,0.273-0.673,0.547-1.012,0.82c-0.196,0.159-0.375,0.334-0.547,0.522
			c-0.277,0.306-2.057,1.485-4.035,2.566c-6.883,3.762-13.839,7.267-19.841,11.983c-3.794,2.982-6.324,7.577-9.033,11.942
			c-1.191,1.914-1.889,3.737-1.461,4.141c0.429,0.404,2.579,0.428,4.807,0.073c1.636-0.261,3.239-0.587,4.696-1.249
			c26.88-12.179,56.08,5.9,57.631,35.362c0.93,17.658-6.912,34.557-15.855,49.809c-6.512,11.102-15.083,29.454-25.581,37.189
			c-9.03,6.654-18.838,5.965-28.659,12.007c-22.26,13.693-38.075,42.938-51.147,64.603c-12.791,21.195-24.121,43.248-37.43,64.113
			c-12.448,19.519-29.343,35.186-42.856,53.048c-1.358,1.795-1.628,4.892-0.922,7.03c0.6,1.807,1.252,3.985,1.705,5.866
			c0.531,2.191,2.464,4.183,4.333,5.439c11.379,7.658-26.805,37.009-38.784,46.883c-1.738,1.433-1.269,2.938,0.971,3.17
			c30.413,3.146,64.085-6.356,90.927-17.14c2.774-1.114,5.353-2.782,7.891-4.398c4.569-2.909,8.988-6.055,13.558-8.964
			c4.872-3.101,47.524-3.386,42.82,5.944c-11.795,23.391,0.702,47.586,4.614,71.127c1.595,9.584,0.008,17.263-1.697,24.803
			c-0.498,2.199-2.701,4.247-4.917,4.655c-8.213,1.514-15.646,3.847-9.869,6.907c4.5,2.383,7.678,5.312,9.857,7.923
			c1.444,1.73,2.554,5.121,2.93,7.345c1.387,8.286,4.484,16.813,7.274,24.541c0.767,2.117,2.358,2.297,3.517,0.363
			c9.731-16.219,12.252-25.59,31.996-21.167c13.003,2.909,26.247,6.858,39.271,9.62c2.207,0.47,2.513-0.257,0.689-1.583
			c-6.516-4.741-12.999-9.563-19.837-13.818c-1.914-1.191-1.755-1.506,0.473-1.188c11.738,1.677,14.754-8.136,21.608-12.146
			c1.946-1.139,1.999-1.098-0.217-0.686c-9.837,1.82-19.796,3.346-29.727,2.379c-29.319-2.852-38.059-26.761-33.252-54.301
			c2.505-14.361,15.537-61.849,30.409-67.557c7.368-2.827,15.806,2.668,19.074,9.85c3.271,7.177,2.758,15.43,2.248,23.301
			c-0.511,7.87-0.878,16.16,2.627,23.228c3.146,6.34,8.98,10.824,13.75,16.055c4.77,5.227,8.727,12.333,6.781,19.135
			c-1.747,6.116-7.94,10.114-14.207,11.188c-4.933,0.845-9.951,0.216-14.9-0.723c-2.215-0.42-3.039,0.8-1.31,2.244
			c12.077,10.086,41.294,0.547,35.146,22.347c-1.273,4.504-2.297,9.082-3.387,13.774c-0.51,2.194,0.734,3.215,2.697,2.108
			c8.237-4.626,13.476-10.881,12.195-21.444c-0.155-1.285,47.564,12.971,50.637,13.962c3.7,1.195,7.601,1.791,11.922,2.546
			c2.219,0.388,3.488-1.008,2.709-3.121c-2.236-6.083-5.022-10.212-12-11.452c-6.658-1.188-13.284-3.183-19.693-5.455
			c-2.126-0.751-2.012-1.433,0.24-1.318c12.016,0.596,37.038,3.391,37.087-8.992c0.009-2.252-2.509-3.7-4.716-3.252
			c-4.247,0.869-8.52,1.86-12.771,1.767c-15.985-0.358-34.138,2.469-46.206-8.115c-11.836-10.375-14.521-33.215-13.537-47.735
			c5.002-73.995,79.294-114.281,100.678-183.286c10.33-33.346,1.938-63.252-15.435-92.367
			C440.158,165.557,432.512,157.499,429.216,140.669z"/>
	</g>
</g>
<g>
</g>
<g>
</g>
<g>
</g>
<g>
</g>
<g>
</g>
<g>
</g>
<g>
</g>
<g>
</g>
<g>
</g>
<g>
</g>
<g>
</g>
<g>
</g>
<g>
</g>
<g>
</g>
<g>
</g>
</svg>
